<mxfile host="app.diagrams.net" agent="Mozilla/5.0 (Windows NT 10.0; Win64; x64) AppleWebKit/537.36 (KHTML, like Gecko) Chrome/140.0.0.0 Safari/537.36" version="28.2.7">
  <diagram name="第 1 页" id="1ejebWde5nGpYEh59EDh">
    <mxGraphModel dx="1426" dy="743" grid="0" gridSize="10" guides="1" tooltips="1" connect="1" arrows="1" fold="1" page="1" pageScale="1" pageWidth="827" pageHeight="1169" math="0" shadow="0">
      <root>
        <mxCell id="0" />
        <mxCell id="1" parent="0" />
        <mxCell id="GN5kl9gSCmD39-kKDElM-4" style="edgeStyle=orthogonalEdgeStyle;rounded=0;orthogonalLoop=1;jettySize=auto;html=1;exitX=0.5;exitY=1;exitDx=0;exitDy=0;" edge="1" parent="1" source="GN5kl9gSCmD39-kKDElM-8" target="GN5kl9gSCmD39-kKDElM-3">
          <mxGeometry relative="1" as="geometry">
            <mxPoint x="367" y="287" as="sourcePoint" />
          </mxGeometry>
        </mxCell>
        <mxCell id="GN5kl9gSCmD39-kKDElM-5" value="用户画像数据" style="edgeLabel;html=1;align=center;verticalAlign=middle;resizable=0;points=[];" vertex="1" connectable="0" parent="GN5kl9gSCmD39-kKDElM-4">
          <mxGeometry x="0.0103" y="-2" relative="1" as="geometry">
            <mxPoint x="-2" y="3" as="offset" />
          </mxGeometry>
        </mxCell>
        <mxCell id="GN5kl9gSCmD39-kKDElM-3" value="应用预测推荐模块" style="rounded=1;whiteSpace=wrap;html=1;" vertex="1" parent="1">
          <mxGeometry x="356" y="585" width="120" height="60" as="geometry" />
        </mxCell>
        <mxCell id="GN5kl9gSCmD39-kKDElM-7" style="edgeStyle=orthogonalEdgeStyle;rounded=0;orthogonalLoop=1;jettySize=auto;html=1;exitX=0.5;exitY=1;exitDx=0;exitDy=0;" edge="1" parent="1" source="GN5kl9gSCmD39-kKDElM-6" target="GN5kl9gSCmD39-kKDElM-8">
          <mxGeometry relative="1" as="geometry">
            <mxPoint x="367" y="221" as="targetPoint" />
          </mxGeometry>
        </mxCell>
        <mxCell id="GN5kl9gSCmD39-kKDElM-6" value="用户身份数据" style="rounded=1;whiteSpace=wrap;html=1;" vertex="1" parent="1">
          <mxGeometry x="354" y="110" width="120" height="60" as="geometry" />
        </mxCell>
        <mxCell id="GN5kl9gSCmD39-kKDElM-26" style="edgeStyle=orthogonalEdgeStyle;rounded=0;orthogonalLoop=1;jettySize=auto;html=1;exitX=1;exitY=0.5;exitDx=0;exitDy=0;" edge="1" parent="1" source="GN5kl9gSCmD39-kKDElM-8" target="GN5kl9gSCmD39-kKDElM-25">
          <mxGeometry relative="1" as="geometry" />
        </mxCell>
        <mxCell id="GN5kl9gSCmD39-kKDElM-8" value="用户画像建模模块" style="rounded=1;whiteSpace=wrap;html=1;" vertex="1" parent="1">
          <mxGeometry x="354" y="297" width="120" height="60" as="geometry" />
        </mxCell>
        <mxCell id="GN5kl9gSCmD39-kKDElM-15" style="edgeStyle=orthogonalEdgeStyle;rounded=0;orthogonalLoop=1;jettySize=auto;html=1;exitX=0.5;exitY=1;exitDx=0;exitDy=0;endArrow=none;endFill=0;" edge="1" parent="1" source="GN5kl9gSCmD39-kKDElM-9" target="GN5kl9gSCmD39-kKDElM-12">
          <mxGeometry relative="1" as="geometry" />
        </mxCell>
        <mxCell id="GN5kl9gSCmD39-kKDElM-28" style="edgeStyle=orthogonalEdgeStyle;rounded=0;orthogonalLoop=1;jettySize=auto;html=1;exitX=0;exitY=0.25;exitDx=0;exitDy=0;" edge="1" parent="1" source="GN5kl9gSCmD39-kKDElM-9" target="GN5kl9gSCmD39-kKDElM-25">
          <mxGeometry relative="1" as="geometry" />
        </mxCell>
        <mxCell id="GN5kl9gSCmD39-kKDElM-9" value="&lt;p class=&quot;MsoNormal&quot;&gt;&lt;font style=&quot;font-size: 12px;&quot; face=&quot;Helvetica&quot;&gt;行为模式&lt;/font&gt;&lt;/p&gt;" style="shape=parallelogram;perimeter=parallelogramPerimeter;whiteSpace=wrap;html=1;fixedSize=1;" vertex="1" parent="1">
          <mxGeometry x="771" y="225" width="120" height="60" as="geometry" />
        </mxCell>
        <mxCell id="GN5kl9gSCmD39-kKDElM-16" style="edgeStyle=orthogonalEdgeStyle;rounded=0;orthogonalLoop=1;jettySize=auto;html=1;exitX=0.5;exitY=1;exitDx=0;exitDy=0;endArrow=none;endFill=0;" edge="1" parent="1" source="GN5kl9gSCmD39-kKDElM-12" target="GN5kl9gSCmD39-kKDElM-13">
          <mxGeometry relative="1" as="geometry" />
        </mxCell>
        <mxCell id="GN5kl9gSCmD39-kKDElM-12" value="应用使用偏好" style="shape=parallelogram;perimeter=parallelogramPerimeter;whiteSpace=wrap;html=1;fixedSize=1;" vertex="1" parent="1">
          <mxGeometry x="771" y="314" width="120" height="60" as="geometry" />
        </mxCell>
        <mxCell id="GN5kl9gSCmD39-kKDElM-17" style="edgeStyle=orthogonalEdgeStyle;rounded=0;orthogonalLoop=1;jettySize=auto;html=1;exitX=0.5;exitY=1;exitDx=0;exitDy=0;endArrow=none;endFill=0;" edge="1" parent="1" source="GN5kl9gSCmD39-kKDElM-13" target="GN5kl9gSCmD39-kKDElM-14">
          <mxGeometry relative="1" as="geometry" />
        </mxCell>
        <mxCell id="GN5kl9gSCmD39-kKDElM-13" value="时间周期规律" style="shape=parallelogram;perimeter=parallelogramPerimeter;whiteSpace=wrap;html=1;fixedSize=1;" vertex="1" parent="1">
          <mxGeometry x="771" y="412" width="120" height="60" as="geometry" />
        </mxCell>
        <mxCell id="GN5kl9gSCmD39-kKDElM-14" value="场景适应特征" style="shape=parallelogram;perimeter=parallelogramPerimeter;whiteSpace=wrap;html=1;fixedSize=1;" vertex="1" parent="1">
          <mxGeometry x="771" y="516" width="120" height="60" as="geometry" />
        </mxCell>
        <mxCell id="GN5kl9gSCmD39-kKDElM-24" value="&lt;b&gt;......&lt;/b&gt;" style="text;html=1;whiteSpace=wrap;strokeColor=none;fillColor=none;align=center;verticalAlign=middle;rounded=0;" vertex="1" parent="1">
          <mxGeometry x="801" y="589" width="60" height="30" as="geometry" />
        </mxCell>
        <mxCell id="GN5kl9gSCmD39-kKDElM-25" value="用户画像" style="ellipse;whiteSpace=wrap;html=1;" vertex="1" parent="1">
          <mxGeometry x="594" y="287" width="120" height="80" as="geometry" />
        </mxCell>
        <mxCell id="GN5kl9gSCmD39-kKDElM-27" value="构建" style="text;html=1;whiteSpace=wrap;strokeColor=none;fillColor=none;align=center;verticalAlign=middle;rounded=0;" vertex="1" parent="1">
          <mxGeometry x="493" y="305" width="60" height="30" as="geometry" />
        </mxCell>
      </root>
    </mxGraphModel>
  </diagram>
</mxfile>
